<?xml version="1.0" encoding="UTF-8" standalone="no"?>
<svg
   version="1.1"
   id="Layer_1"
   x="0px"
   y="0px"
   viewBox="0 0 7627180.7 2037073.9"
   enable-background="new 0 0 2761.735 1427.261"
   xml:space="preserve"
   width="7627181"
   height="2037073.9"
   xmlns="http://www.w3.org/2000/svg"
   xmlns:svg="http://www.w3.org/2000/svg"><defs
   id="defs13" />
<g
   id="g8">
	<path
   fill="none"
   stroke="#000000"
   stroke-width="64"
   stroke-miterlimit="10"
   d="m 2660.868,713.631 c 0,0 -573.076,638.384 -1280,638.384 -706.924,0 -1280,-638.384 -1280,-638.384 0,0 573.076,-638.384 1280,-638.384 706.924,0 1280,638.384 1280,638.384 z"
   id="path2" />
	<circle
   fill="none"
   stroke="#000000"
   stroke-width="64"
   stroke-miterlimit="10"
   cx="1380.868"
   cy="713.63098"
   r="638.38397"
   id="circle4" />
	<path
   d="m 1705.456,496.798 c -4.914,86.16 -76.33,154.517 -163.72,154.517 -90.575,0 -164,-73.425 -164,-164 0,-68.349 41.817,-126.924 101.258,-151.559 -31.353,-8.118 -64.234,-12.441 -98.125,-12.441 -215.566,0 -390.317,174.751 -390.317,390.316 0,215.565 174.751,390.316 390.317,390.316 215.566,0 390.316,-174.751 390.316,-390.316 -10e-4,-80.236 -24.216,-154.813 -65.729,-216.833 z"
   id="path6" />
</g>
</svg>
